<!--?xml version="1.0" encoding="utf-8"?-->
<!-- Generator: Adobe Illustrator 18.1.1, SVG Export Plug-In . SVG Version: 6.00 Build 0)  -->

<svg version="1.1" id="_x32_" xmlns="http://www.w3.org/2000/svg" xmlns:xlink="http://www.w3.org/1999/xlink" x="0px" y="0px" viewBox="0 0 512 512" style="width: 32px; height: 32px; opacity: 1;" xml:space="preserve">
<style type="text/css">
	.st0{fill:#4B4B4B;}
</style>
<g>
	<path class="st0" d="M256.011,0C114.623,0,0,114.612,0,256c0,141.388,114.623,256,256.011,256C397.376,512,512,397.389,512,256
		C512,114.612,397.376,0,256.011,0z M447.917,168.402c6.794,5.447,11.142,15.851,10.598,27.57
		c-0.544,11.684-5.842,21.556-13.112,26.187c-6.816-5.446-11.14-15.873-10.596-27.569
		C435.35,182.884,440.649,173.033,447.917,168.402z M432.18,250.192c-9.012-1.834-18.319-9.442-23.776-20.538
		c-5.479-11.084-5.661-22.712-1.359-30.422c9.035,1.846,18.342,9.443,23.799,20.55C436.324,230.854,436.504,242.482,432.18,250.192z
		 M387.956,172.128c-8.174-8.163-11.978-18.206-10.71-26.074c8.31-0.826,18.681,3.284,26.878,11.458
		c8.175,8.175,11.979,18.228,10.688,26.074C406.503,184.412,396.131,180.314,387.956,172.128z M393.731,359.641
		c-2.219,12.76-9.398,22.859-18.024,26.924c-6.702-6.928-10.009-18.953-7.79-31.712c2.242-12.75,9.398-22.826,18.025-26.912
		C392.643,334.857,395.973,346.892,393.731,359.641z M425.364,298.424c-0.068,12.238-5.162,22.746-12.544,27.863
		c-7.337-5.424-12.296-16.134-12.251-28.373c0.068-12.228,5.163-22.734,12.546-27.863
		C420.451,275.474,425.409,286.185,425.364,298.424z M403.785,112.031c7.427,2.456,14.514,9.804,18.07,19.711
		c3.554,9.895,2.581,19.7-1.789,25.769c-7.405-2.48-14.515-9.805-18.048-19.711C398.464,127.893,399.414,118.088,403.785,112.031z
		 M376.816,104.819c7.631,7.563,11.232,16.914,10.076,24.228c-7.743,0.804-17.412-2.967-25.043-10.552
		c-7.654-7.574-11.254-16.904-10.099-24.24C359.494,93.463,369.14,97.244,376.816,104.819z M135.183,104.819
		c7.676-7.575,17.323-11.356,25.067-10.564c1.154,7.336-2.445,16.666-10.076,24.24c-7.654,7.586-17.323,11.356-25.044,10.552
		C123.974,121.733,127.552,112.382,135.183,104.819z M126.058,327.94c8.627,4.087,15.806,14.163,18.024,26.912
		c2.219,12.759-1.064,24.784-7.79,31.712c-8.605-4.065-15.782-14.164-18.025-26.924C116.049,346.892,119.356,334.857,126.058,327.94
		z M97.187,183.586c-1.292-7.847,2.514-17.9,10.71-26.074c8.175-8.174,18.545-12.284,26.856-11.458
		c1.268,7.869-2.536,17.911-10.71,26.074C115.868,180.314,105.498,184.412,97.187,183.586z M90.144,131.742
		c3.556-9.907,10.643-17.255,18.07-19.711c4.371,6.058,5.322,15.862,1.789,25.769c-3.554,9.906-10.642,17.232-18.07,19.711
		C87.564,151.442,86.59,141.637,90.144,131.742z M104.954,199.232c4.302,7.71,4.122,19.338-1.336,30.422
		c-5.48,11.096-14.787,18.704-23.8,20.538c-4.324-7.71-4.144-19.338,1.337-30.41C86.613,208.675,95.919,201.078,104.954,199.232z
		 M111.43,297.914c0.067,12.239-4.913,22.95-12.251,28.373c-7.382-5.118-12.476-15.625-12.521-27.863
		c-0.068-12.239,4.89-22.95,12.228-28.373C106.268,275.18,111.362,285.686,111.43,297.914z M64.082,168.402
		c7.291,4.63,12.568,14.482,13.111,26.188c0.543,11.696-3.782,22.123-10.598,27.569c-7.269-4.63-12.568-14.502-13.111-26.187
		C52.941,184.253,57.289,173.849,64.082,168.402z M42.797,274.127c-6.68-10.27-8.22-21.828-4.846-30.117
		c9.149,0.566,19.201,6.816,25.882,17.108c6.68,10.268,8.197,21.806,4.846,30.105C59.53,290.668,49.476,284.407,42.797,274.127z
		 M74.725,370.692c-11.798-7.45-18.863-18.364-19.315-28.102c9.691-3.328,23.096-1.347,34.894,6.103
		c11.798,7.439,18.84,18.341,19.315,28.079C99.904,380.112,86.521,378.13,74.725,370.692z M137.765,426.214
		c-13.655-4.336-23.709-13.167-26.947-22.44c8.56-5.548,22.214-6.861,35.868-2.514c13.677,4.314,23.708,13.167,26.946,22.429
		C165.096,429.238,151.442,430.551,137.765,426.214z M309.133,324.249c1.653,0,2.763,1.121,2.763,2.785v22.237
		c0,1.675-1.11,2.785-2.763,2.785H202.911c-1.653,0-2.762-1.11-2.762-2.785v-20.855c0-1.665,0.272-2.502,1.382-3.601l66.731-83.137
		c7.518-9.17,12.228-18.07,12.228-28.916c0-14.164-9.171-25.01-25.022-25.01c-15.012,0-23.64,9.17-25.587,23.617
		c-0.272,1.664-1.382,2.514-3.057,2.231l-24.456-5.005c-1.675-0.283-2.49-1.664-2.219-3.34c2.492-22.236,20.289-45.31,56.157-45.31
		c35.302,0,55.59,23.346,55.59,52.817c0,16.96-6.657,30.875-17.776,44.212l-55.07,66.72v0.554H309.133z M374.235,426.214
		c-13.655,4.337-27.332,3.024-35.868-2.524c3.238-9.262,13.269-18.115,26.946-22.429c13.655-4.348,27.331-3.034,35.869,2.514
		C397.943,413.047,387.911,421.878,374.235,426.214z M437.276,370.692c-11.776,7.438-25.18,9.42-34.895,6.08
		c0.476-9.738,7.541-20.64,19.315-28.079c11.82-7.45,25.202-9.431,34.916-6.103C456.137,352.328,449.072,363.242,437.276,370.692z
		 M443.32,291.223c-3.35-8.299-1.834-19.837,4.846-30.105c6.68-10.292,16.734-16.542,25.882-17.108
		c3.374,8.288,1.834,19.847-4.845,30.117C462.523,284.407,452.469,290.668,443.32,291.223z" style="fill: rgb(75, 75, 75);"></path>
</g>
</svg>
